PathFileType	4	(X/Y/Z)	38_1_tpose_p1_0-138_filt_butterworth.trc
DataRate	CameraRate	NumFrames	NumMarkers	Units	OrigDataRate	OrigDataStartFrame	OrigNumFrames
51.0	51.0	5	27	m	51.0	103	138
Frame#	Time	RHip			RKnee			RAnkle			RBigToe			RSmallToe			RHeel			LHip			LKnee			LAnkle			LBigToe			LSmallToe			LHeel			Neck			Head			Nose			RShoulder			RElbow			RWrist			RThumb			RIndex			RPinky			LShoulder			LElbow			LWrist			LThumb			LIndex			LPinky			
		X1	Y1	Z1	X2	Y2	Z2	X3	Y3	Z3	X4	Y4	Z4	X5	Y5	Z5	X6	Y6	Z6	X7	Y7	Z7	X8	Y8	Z8	X9	Y9	Z9	X10	Y10	Z10	X11	Y11	Z11	X12	Y12	Z12	X13	Y13	Z13	X14	Y14	Z14	X15	Y15	Z15	X16	Y16	Z16	X17	Y17	Z17	X18	Y18	Z18	X19	Y19	Z19	X20	Y20	Z20	X21	Y21	Z21	X22	Y22	Z22	X23	Y23	Z23	X24	Y24	Z24	X25	Y25	Z25	X26	Y26	Z26	X27	Y27	Z27	
103	2.019607843137255	0.3583751915442155	0.6001288977307724	0.9617123917758378	0.36590908432835667	0.1402187316802379	0.9960945294925417	0.36545454783053	-0.29906621576054015	0.9972444847546508	0.30650996351811727	-0.28268033699992906	0.7773224310049985	0.38559171289117167	-0.2838001375627449	0.7830371810274717	0.35408580932850964	-0.38554972889747563	1.0965756345539885	0.16970920808776516	0.5929944457484855	0.9986840569057843	0.16579137500383748	0.12965015856283352	1.0435376461778585	0.16674347970564088	-0.28580189954770413	1.0280694972520965	0.1579376912243185	-0.2776160948687676	0.8096496247318355	0.1098460656409212	-0.3059282839672922	0.8685136120389857	0.20207295912612008	-0.3755374479829614	1.0936172934982442	0.2610185909186007	1.1347443296929318	1.0261493051872637	0.25959831911616427	1.3843580097477126	0.9704101039977326	0.2340395684858067	1.2598808022065608	0.9108976725031885	0.40401161183036716	1.090391859502476	0.9840618266625704	0.6893557988943919	1.0938889837488774	0.9684013022450627	0.9372259097854194	1.110658428296612	0.9390384563202601	1.0501583224151525	1.1112843685159395	0.9013766559572823	1.0874617416284944	1.1216994639147968	0.9180766452183468	1.0626582293295261	1.1039756028679646	0.9644566157640642	0.10119094954157562	1.1067545854300522	1.0256336086335966	-0.14546004678074498	1.094748155091162	1.0927015205774941	-0.3887264537306858	1.1492124507531196	1.1455326123646137	-0.4716365717074506	1.1452508670890305	1.1495098446398726	-0.49534883561353216	1.157024278383882	1.1441104946795468	-0.48564568365071703	1.1481830741225425	1.2268638183139244	
104	2.0392156862745097	0.3583201050496678	0.6001613874176799	0.9617170373550026	0.36508912505070235	0.14076335702671638	0.995101904639283	0.36505105704637675	-0.2986069135806769	0.9966090491977495	0.30776647291617254	-0.2825882623965533	0.7771802871298629	0.385627496500735	-0.28385841648457855	0.783046581650315	0.3540803226768868	-0.38579078110292825	1.096430723347174	0.16971082915936594	0.5933199175258718	0.9983969553263853	0.16543348857234735	0.12963614219899922	1.0435004480757213	0.1667366781879341	-0.2857851350388225	1.0280464877255537	0.15785304171288983	-0.27778696685284093	0.8097259184659414	0.10980772698350341	-0.30604167772994284	0.8686376806402787	0.20207759957960222	-0.3755652396443948	1.0936311608537206	0.2610049148501906	1.1347559055006322	1.0261126153309004	0.25965879825155	1.3843104672407318	0.970167218979894	0.23404682977824076	1.2599461378609207	0.9108347448894208	0.4039961610769357	1.0902235579118007	0.9841351195291619	0.6884617835360036	1.0936447373299532	0.9684842983690396	0.9368460208566025	1.1102593395438995	0.9418801178008849	1.050593340930213	1.1103773605856868	0.9031320824624515	1.0907509020049602	1.1202566485768584	0.924136499866762	1.0641533927909352	1.1030994129170244	0.9722050331747953	0.10115797619709581	1.1067118357089154	1.0256480762984928	-0.1454305014749971	1.0942760266327152	1.0924512149062093	-0.38959863398860606	1.1497668938518875	1.1424512571745087	-0.47198951969088876	1.1456745437759397	1.1465553326855122	-0.49662613689076207	1.1570646398599422	1.1438279045849793	-0.48731675658994533	1.1468643890764723	1.2304252241124942	
105	2.0588235294117645	0.35826997691011936	0.6001600330521235	0.9616886429309446	0.3641244243531241	0.14147262515763925	0.9938275313525531	0.36482527472404624	-0.29834055121605313	0.9962517228989951	0.308526637972248	-0.28249845263286016	0.7770471985779085	0.3856730502725215	-0.284032066665966	0.7830898469782772	0.3540751297441108	-0.38615635088115374	1.0962325725588746	0.16965591429635643	0.5937144804270426	0.998257200067854	0.1650629806804669	0.12969583228321785	1.0434584586618236	0.16677185238656966	-0.2855919790214387	1.0280455680354472	0.15767210489144587	-0.2782768479950932	0.8097674931622395	0.10976400342812337	-0.3061479511390265	0.8687636809776588	0.20208616592943493	-0.37561217753454595	1.0936564187742992	0.26098969997532584	1.1347718889151859	1.0260990127690364	0.2597126759906837	1.3843746032729605	0.9698960156037565	0.234032966623833	1.2602077298877306	0.9109541926412448	0.40392611066499434	1.090162220489825	0.9842475305619816	0.6876691112231588	1.0929267005143524	0.9696027597635622	0.9370806574721295	1.1096895889338123	0.9457793205990378	1.0509379291984973	1.109737823660065	0.9043727060520533	1.0938398765170227	1.118435580607228	0.9306125766208637	1.0653378813353922	1.1019155662259958	0.9791317110696214	0.10112011291517425	1.1066960616080201	1.0256399128918856	-0.14540586862129262	1.0941491170164799	1.0923505741143473	-0.3900889656228847	1.1499005846751367	1.141737503838881	-0.4719168966875179	1.1457849498720105	1.1441720793800847	-0.49755115045144405	1.1571499483223033	1.1433248336806345	-0.48813775166080514	1.1459693195082674	1.2319166047995136	
106	2.07843137254902	0.3582245578097438	0.600125605980671	0.9616230867059277	0.363038194123729	0.14232870138170178	0.9923029882516246	0.364754375374819	-0.29841292419292764	0.9963824003187178	0.30863014260104643	-0.2824433038985022	0.7769785201731448	0.3857080697885278	-0.28420682676164805	0.7831486353023475	0.35407018326301076	-0.38662377618739896	1.095984283150046	0.16956427820448822	0.5942074797493133	0.9981465554391553	0.16469331651101918	0.1297939338217991	1.0433862448359053	0.16684194302361047	-0.2852724503056346	1.0280780914665584	0.1574441949890605	-0.27899107899682146	0.8097768511774163	0.10972293538430196	-0.30622311472467195	0.8688656953265251	0.20209969440196657	-0.3756670623737547	1.093689414822791	0.2609731499593756	1.1347912079281592	1.0261135643596044	0.25967097730795236	1.3844134400353725	0.9701095186098289	0.23402442521977698	1.2606638744929701	0.9111273696738534	0.40384735396535154	1.0902620025158194	0.9843931055271108	0.6871061868783992	1.0918227538487855	0.9717023259047948	0.9381280785047061	1.1088163243306157	0.9506667697339963	1.051128711777776	1.109446961931775	0.9049884014119762	1.0962388058829546	1.1167847057791203	0.9359901802623374	1.0666856704254637	1.1006014194199907	0.9852232872355786	0.10108460496119617	1.1067075147318783	1.0256101115837153	-0.14540011187798094	1.0942919320718636	1.0923554383053502	-0.389918657414568	1.1496704421554553	1.1430502405649	-0.47116119561309056	1.1456871246026943	1.1417672744805731	-0.49796446143561945	1.1572386210035954	1.1428117990928848	-0.48798347797660757	1.1455408417141988	1.2316184100907321	
107	2.0980392156862746	0.3581895183086124	0.6001067844406429	0.9615314441623938	0.36193022120216223	0.14321202717539377	0.9907335170647755	0.3647868400697374	-0.29879528724900967	0.9969602090525651	0.30808292814229093	-0.28242198118571304	0.7769709156722352	0.3856840307226013	-0.2841254020146979	0.7831730789174559	0.3540654838988963	-0.38708796069043067	1.0957230687237698	0.16945793945689286	0.5947678518128894	0.9979943244619689	0.16434132658373526	0.12991698781141126	1.043275089512041	0.16692789449176576	-0.28490216168139343	1.0281319390222305	0.1572261444151507	-0.27978637666775674	0.8097520183714074	0.109696546523138	-0.30625547756836186	0.8689301166898937	0.20211366909474454	-0.37571135551207646	1.0937216159463061	0.260956274707093	1.1348083157464688	1.0261544600100228	0.2594841772747556	1.3843630335527213	0.9711820187908113	0.23402685940646273	1.2612415148269216	0.9113008136271549	0.4037796628963061	1.0904779219755794	0.9845399903146475	0.6868372886490464	1.0905082448784322	0.9744046759399456	0.9398366014733595	1.1077834803313245	0.9555126656369328	1.0511327416760625	1.109432180952944	0.9051704192183965	1.097244880435484	1.1159985779992228	0.9382403598406912	1.0680106363779454	1.099340287969486	0.9894132776378105	0.10105493166523537	1.1067371890640758	1.0255715234504228	-0.14541646149479368	1.0944933488129136	1.0923762614983488	-0.38918892178821773	1.1491810119378107	1.1457858955587479	-0.46974055505692835	1.1456003154345726	1.1387103412350694	-0.497721960816608	1.157272514792506	1.1425739710112262	-0.48696887060834754	1.1454974929893678	1.230179927365625	
